<?xml version="1.0" standalone="no"?>
<!DOCTYPE svg PUBLIC "-//W3C//DTD SVG 20010904//EN"
 "http://www.w3.org/TR/2001/REC-SVG-20010904/DTD/svg10.dtd">
<svg version="1.0" xmlns="http://www.w3.org/2000/svg"
 width="36.000000pt" height="36.000000pt" viewBox="0 0 512.000000 512.000000"
 preserveAspectRatio="xMidYMid meet">

<g transform="translate(0.000000,512.000000) scale(0.100000,-0.100000)"
fill="#000000" stroke="none">
<path d="M2692 4193 c-49 -24 -75 -68 -80 -132 -4 -66 20 -111 78 -145 34 -21
49 -21 795 -24 418 -2 779 0 803 3 57 8 118 62 132 116 19 69 -17 151 -80 184
-25 13 -141 15 -822 15 -710 0 -796 -2 -826 -17z"/>
<path d="M776 2697 c-109 -61 -106 -221 5 -277 38 -20 67 -20 1779 -20 1712 0
1741 0 1779 20 113 57 113 223 0 280 -38 20 -67 20 -1781 20 l-1743 0 -39 -23z"/>
<path d="M1506 1220 c-42 -13 -95 -68 -107 -112 -18 -68 19 -151 81 -183 44
-23 2816 -23 2860 0 62 32 99 115 81 183 -13 46 -65 99 -112 112 -43 13 -2762
12 -2803 0z"/>
</g>
</svg>
